<svg xmlns="http://www.w3.org/2000/svg" width="1000" height="1000" viewBox="0 0 1000 1000">
  <!-- Dark background -->
  <rect width="100%" height="100%" fill="#0a0e17"/>
  
  <!-- Grid pattern -->
  <pattern id="grid" width="50" height="50" patternUnits="userSpaceOnUse">
    <path d="M 50 0 L 0 0 0 50" fill="none" stroke="rgba(76, 201, 240, 0.1)" stroke-width="0.5"/>
  </pattern>
  <rect width="100%" height="100%" fill="url(#grid)"/>
  
  <!-- Circuit board traces -->
  <g stroke="rgba(76, 201, 240, 0.15)" stroke-width="1" fill="none">
    <!-- Horizontal lines -->
    <path d="M 0 200 L 400 200 L 450 250 L 1000 250" />
    <path d="M 0 600 L 300 600 L 350 650 L 1000 650" />
    <path d="M 400 0 L 400 400" />
    <path d="M 700 1000 L 700 400" />
    
    <!-- Circuit nodes -->
    <circle cx="400" cy="200" r="10" fill="rgba(76, 201, 240, 0.2)"/>
    <circle cx="700" cy="650" r="10" fill="rgba(76, 201, 240, 0.2)"/>
    
    <!-- Digital data streams -->
    <text x="420" y="190" font-family="monospace" font-size="10" fill="rgba(76, 201, 240, 0.3)">10110101</text>
    <text x="720" y="640" font-family="monospace" font-size="10" fill="rgba(76, 201, 240, 0.3)">01001011</text>
  </g>
  
  <!-- Fingerprint pattern (simplified) -->
  <g transform="translate(500, 500) scale(0.4)" opacity="0.1" stroke="rgba(76, 201, 240, 0.5)" stroke-width="2" fill="none">
    <path d="M 0,0 C 50,-100 200,-100 250,0 C 300,100 450,100 500,0" />
    <path d="M -50,50 C 0,-50 150,-50 200,50 C 250,150 400,150 450,50" />
    <path d="M -100,100 C -50,0 100,0 150,100 C 200,200 350,200 400,100" />
    <path d="M -150,150 C -100,50 50,50 100,150 C 150,250 300,250 350,150" />
    <path d="M -200,200 C -150,100 0,100 50,200 C 100,300 250,300 300,200" />
  </g>
  
  <!-- Digital code elements -->
  <g fill="rgba(76, 201, 240, 0.05)">
    <text x="100" y="400" font-family="monospace" font-size="8">
      function authenticate() {
        const biometricData = scanFingerprint();
        return verifyIdentity(biometricData);
      }
    </text>
    <text x="600" y="300" font-family="monospace" font-size="8">
      class FacialRecognition {
        constructor() {
          this.confidence = 0.95;
          this.initialize();
        }
      }
    </text>
  </g>
  
  <!-- Security elements -->
  <g fill="rgba(76, 201, 240, 0.1)">
    <circle cx="200" cy="800" r="50" />
    <text x="185" y="805" font-family="monospace" font-size="20">🔒</text>
    
    <circle cx="800" cy="200" r="50" />
    <text x="785" y="205" font-family="monospace" font-size="20">🔍</text>
  </g>
</svg>